<svg width="156" height="156" viewBox="0 0 156 156" fill="none" xmlns="http://www.w3.org/2000/svg">
<g clip-path="url(#clip0_654_6466)">
<path d="M112 37C119.18 37 125 42.8203 125 50V138C125 145.18 119.18 151 112 151H44C36.8203 151 31 145.18 31 138V50C31 42.8203 36.8203 37 44 37H112Z" fill="#FFEEEE" stroke="black" stroke-width="6"/>
<path d="M37.1113 61L37.193 58.0011L37.1522 58H37.1113V61ZM37.3623 61.0068L37.514 58.0107L37.479 58.0089L37.444 58.0079L37.3623 61.0068ZM42 65.8887H45V65.8885L42 65.8887ZM37.3623 70.7715L37.4323 73.7707L37.4732 73.7697L37.5139 73.7676L37.3623 70.7715ZM37.1113 70.7773V73.7773H37.1463L37.1813 73.7765L37.1113 70.7773ZM24.8887 70.7773L24.8885 73.7773H24.8887V70.7773ZM20 65.8887L17 65.8885V65.8887H20ZM24.8887 61V58H24.8885L24.8887 61ZM37.1113 61L37.0296 63.9989L37.2806 64.0057L37.3623 61.0068L37.444 58.0079L37.193 58.0011L37.1113 61ZM37.3623 61.0068L37.2106 64.003C38.2066 64.0534 39 64.8795 39 65.8888L42 65.8887L45 65.8885C44.9998 61.6664 41.6845 58.2218 37.514 58.0107L37.3623 61.0068ZM42 65.8887H39C39 66.8986 38.2061 67.7249 37.2107 67.7753L37.3623 70.7715L37.5139 73.7676C41.6852 73.5565 45 70.1103 45 65.8887H42ZM37.3623 70.7715L37.2923 67.7723L37.0413 67.7782L37.1113 70.7773L37.1813 73.7765L37.4323 73.7707L37.3623 70.7715ZM37.1113 70.7773V67.7773H24.8887V70.7773V73.7773H37.1113V70.7773ZM24.8887 70.7773L24.8888 67.7773C23.8455 67.7773 23 66.9317 23 65.8887H20H17C17 70.2456 20.532 73.7772 24.8885 73.7773L24.8887 70.7773ZM20 65.8887L23 65.8888C23 64.8457 23.8457 64 24.8888 64L24.8887 61L24.8885 58C20.5319 58.0002 17.0002 61.5319 17 65.8885L20 65.8887ZM24.8887 61V64H37.1113V61V58H24.8887V61Z" fill="black"/>
<path d="M37.1113 88L37.193 85.0011L37.1522 85H37.1113V88ZM37.3623 88.0068L37.514 85.0107L37.479 85.0089L37.444 85.0079L37.3623 88.0068ZM42 92.8887H45V92.8885L42 92.8887ZM37.3623 97.7715L37.4323 100.771L37.4732 100.77L37.5139 100.768L37.3623 97.7715ZM37.1113 97.7773V100.777H37.1463L37.1813 100.777L37.1113 97.7773ZM24.8887 97.7773L24.8885 100.777H24.8887V97.7773ZM20 92.8887L17 92.8885V92.8887H20ZM24.8887 88V85H24.8885L24.8887 88ZM37.1113 88L37.0296 90.9989L37.2806 91.0057L37.3623 88.0068L37.444 85.0079L37.193 85.0011L37.1113 88ZM37.3623 88.0068L37.2106 91.003C38.2066 91.0534 39 91.8795 39 92.8888L42 92.8887L45 92.8885C44.9998 88.6664 41.6845 85.2218 37.514 85.0107L37.3623 88.0068ZM42 92.8887H39C39 93.8986 38.2061 94.7249 37.2107 94.7753L37.3623 97.7715L37.5139 100.768C41.6852 100.557 45 97.1103 45 92.8887H42ZM37.3623 97.7715L37.2923 94.7723L37.0413 94.7782L37.1113 97.7773L37.1813 100.777L37.4323 100.771L37.3623 97.7715ZM37.1113 97.7773V94.7773H24.8887V97.7773V100.777H37.1113V97.7773ZM24.8887 97.7773L24.8888 94.7773C23.8455 94.7773 23 93.9317 23 92.8887H20H17C17 97.2456 20.532 100.777 24.8885 100.777L24.8887 97.7773ZM20 92.8887L23 92.8888C23 91.8457 23.8457 91 24.8888 91L24.8887 88L24.8885 85C20.5319 85.0002 17.0002 88.5319 17 92.8885L20 92.8887ZM24.8887 88V91H37.1113V88V85H24.8887V88Z" fill="black"/>
<path d="M37.1113 115L37.193 112.001L37.1522 112H37.1113V115ZM37.3623 115.007L37.514 112.011L37.479 112.009L37.444 112.008L37.3623 115.007ZM42 119.889H45V119.889L42 119.889ZM37.3623 124.771L37.4323 127.771L37.4732 127.77L37.5139 127.768L37.3623 124.771ZM37.1113 124.777V127.777H37.1463L37.1813 127.777L37.1113 124.777ZM24.8887 124.777L24.8885 127.777H24.8887V124.777ZM20 119.889L17 119.889V119.889H20ZM24.8887 115V112H24.8885L24.8887 115ZM37.1113 115L37.0296 117.999L37.2806 118.006L37.3623 115.007L37.444 112.008L37.193 112.001L37.1113 115ZM37.3623 115.007L37.2106 118.003C38.2066 118.053 39 118.88 39 119.889L42 119.889L45 119.889C44.9998 115.666 41.6845 112.222 37.514 112.011L37.3623 115.007ZM42 119.889H39C39 120.899 38.2061 121.725 37.2107 121.775L37.3623 124.771L37.5139 127.768C41.6852 127.557 45 124.11 45 119.889H42ZM37.3623 124.771L37.2923 121.772L37.0413 121.778L37.1113 124.777L37.1813 127.777L37.4323 127.771L37.3623 124.771ZM37.1113 124.777V121.777H24.8887V124.777V127.777H37.1113V124.777ZM24.8887 124.777L24.8888 121.777C23.8455 121.777 23 120.932 23 119.889H20H17C17 124.246 20.532 127.777 24.8885 127.777L24.8887 124.777ZM20 119.889L23 119.889C23 118.846 23.8457 118 24.8888 118L24.8887 115L24.8885 112C20.5319 112 17.0002 115.532 17 119.889L20 119.889ZM24.8887 115V118H37.1113V115V112H24.8887V115Z" fill="black"/>
<path d="M63 92C67.4183 92 71 95.5817 71 100C71 104.418 67.4183 108 63 108C58.5817 108 55 104.418 55 100C55 95.5817 58.5817 92 63 92ZM66 95C64.3431 95 63 96.3431 63 98C63 99.6569 64.3431 101 66 101C67.6569 101 69 99.6569 69 98C69 96.3431 67.6569 95 66 95Z" fill="black"/>
<path d="M97 92C101.418 92 105 95.5817 105 100C105 104.418 101.418 108 97 108C92.5817 108 89 104.418 89 100C89 95.5817 92.5817 92 97 92ZM100 95C98.3431 95 97 96.3431 97 98C97 99.6569 98.3431 101 100 101C101.657 101 103 99.6569 103 98C103 96.3431 101.657 95 100 95Z" fill="black"/>
<path d="M72 117C73.5969 119.391 76.5815 121 80 121C83.4185 121 86.4031 119.391 88 117" stroke="black" stroke-width="5" stroke-linecap="round"/>
<path d="M60.1114 110L60.2595 110.004C61.786 110.098 62.9999 111.627 63 113.5C63 115.433 61.7067 117 60.1114 117H52.8886C51.2933 117 50 115.433 50 113.5C50.0001 111.567 51.2933 110 52.8886 110H60.1114Z" fill="#F5AFAF"/>
<path d="M107.111 110L107.26 110.004C108.786 110.098 110 111.627 110 113.5C110 115.433 108.707 117 107.111 117H99.8886C98.2933 117 97 115.433 97 113.5C97.0001 111.567 98.2933 110 99.8886 110H107.111Z" fill="#F5AFAF"/>
<path d="M62 72.3433L79.8252 89L113 58" stroke="black" stroke-width="6" stroke-linecap="round"/>
<path fill-rule="evenodd" clip-rule="evenodd" d="M79 2C79.3189 2 79.634 2.05742 79.9232 2.16825L112.738 14.7773C113.124 14.9258 113.449 15.1641 113.673 15.4628C113.898 15.7615 114.011 16.1076 113.999 16.4586C113.988 16.8096 113.852 17.1502 113.608 17.4384C113.364 17.7266 113.024 17.9499 112.628 18.0809L109.627 19.0716L105.252 20.5162L79.8138 28.8886C79.2915 29.061 78.7085 29.061 78.1862 28.8886L45.3717 18.0809C44.9761 17.9499 44.6355 17.7266 44.392 17.4384C44.1484 17.1502 44.0124 16.8096 44.0008 16.4586C43.9892 16.1076 44.1024 15.7615 44.3265 15.4628C44.5507 15.1641 44.8759 14.9258 45.2624 14.7773L78.0768 2.16825C78.366 2.05742 78.6811 2 79 2ZM105.252 20.5162L105.249 31.1922C104.088 31.1922 102.975 31.5718 102.155 32.2474C101.334 32.923 100.873 33.8394 100.873 34.7948V42H113.999V34.7948C113.999 33.8394 113.538 32.923 112.718 32.2474C111.897 31.5718 110.784 31.1922 109.624 31.1922V19.0716L105.252 20.5162ZM51.6896 16.2832L79 25.2716L106.31 16.2832L79 5.78885L51.6896 16.2832Z" fill="black"/>
<path d="M79 25.2716L51.6896 16.2832L79 5.78885L106.31 16.2832L79 25.2716Z" fill="#769FCD"/>
<path d="M62.1364 19.9459C61.8547 19.8534 61.5542 19.8126 61.2536 19.826C60.9529 19.8394 60.6587 19.9067 60.3894 20.0237C60.12 20.1407 59.8812 20.3049 59.688 20.506C59.4947 20.7072 59.3512 20.9409 59.2664 21.1926L59.1031 34.5364C59.1031 34.5364 58.9968 35.4798 59.2346 35.9063C59.4725 36.3328 60.3894 36.8429 60.3894 36.8429L78.0526 36.8429H79.6801L97.1801 36.9836C97.6853 36.8075 98.0971 36.4735 98.3349 36.047C98.5727 35.6205 98.6196 35.1321 98.4664 34.6771V21.1926C98.3816 20.9409 98.2381 20.7072 98.0448 20.506C97.8516 20.3049 97.6128 20.1407 97.3434 20.0237C97.0741 19.9067 96.7798 19.8394 96.4792 19.826C96.1786 19.8126 95.8781 19.8534 95.5964 19.9459L78.8664 25.413L62.1364 19.9459ZM62.9323 33.3739L62.8014 24.2349L78.0964 29.2331C78.5928 29.3958 79.14 29.3958 79.6364 29.2331L94.9314 24.2349V33.3739H78.9973H62.9323Z" fill="black"/>
<path d="M62.9323 33.3739L62.8014 24.2349L78.0964 29.2331C78.5928 29.3958 79.14 29.3958 79.6364 29.2331L94.9314 24.2349V33.3739H78.9973H62.9323Z" fill="#769FCD"/>
</g>
<defs>
<clipPath id="clip0_654_6466">
<rect width="156" height="156" fill="white"/>
</clipPath>
</defs>
</svg>
