<svg width="32" height="32" viewBox="0 0 32 32" fill="none" xmlns="http://www.w3.org/2000/svg">
<g clip-path="url(#clip0_330_4672)">
<path d="M19.1611 28.75C19.0232 29.3313 18.7272 29.8685 18.2979 30.2979C17.6884 30.9073 16.8619 31.25 16 31.25C15.1381 31.25 14.3116 30.9073 13.7021 30.2979C13.2728 29.8685 12.9768 29.3313 12.8389 28.75H19.1611ZM16 0.748047C16.1746 0.748047 16.3472 0.784673 16.5068 0.855469C16.6664 0.926283 16.8096 1.02976 16.9268 1.15918C17.0439 1.28868 17.1329 1.44154 17.1875 1.60742C17.2421 1.77336 17.2616 1.94924 17.2441 2.12305L17.1758 2.79785L17.8408 2.93262C19.9321 3.35729 21.8127 4.49209 23.1631 6.14453C24.5134 7.79696 25.2504 9.86605 25.25 12C25.25 12.933 25.4154 15.0754 25.8047 17.4316C26.1924 19.7781 26.8167 22.4296 27.7686 24.334V24.335C27.9279 24.6544 28.1029 24.9619 28.292 25.25H3.70801C3.89715 24.9619 4.07109 24.6535 4.23047 24.334C5.18246 22.4296 5.80756 19.7783 6.19531 17.4316C6.58462 15.0754 6.74998 12.933 6.75 12C6.75 7.52381 9.93155 3.78537 14.1582 2.93262L14.8242 2.79883L14.7559 2.12305C14.7384 1.94924 14.7579 1.77336 14.8125 1.60742C14.8671 1.44154 14.9561 1.28868 15.0732 1.15918C15.1904 1.02976 15.3336 0.926283 15.4932 0.855469C15.6528 0.784672 15.8254 0.748047 16 0.748047ZM15.8516 3.10059L14.2578 3.42285H14.2568C12.2789 3.82503 10.5006 4.89874 9.22363 6.46191C7.94671 8.02508 7.2494 9.98158 7.25 12L7.2373 12.5332C7.1786 13.9672 6.90847 16.663 6.34766 19.3291V19.3311C6.03285 20.8401 5.61275 22.3885 5.06348 23.7129L4.63281 24.75H27.3672L26.9365 23.7129C26.3873 22.3887 25.9694 20.8423 25.6523 19.3301V19.3291C25.0115 16.2824 24.75 13.1969 24.75 12L24.7422 11.6221C24.6609 9.73868 23.9724 7.9279 22.7754 6.46289C21.4985 4.90029 19.7207 3.82688 17.7432 3.4248L16.1494 3.10059L16 3.07031L15.8516 3.10059Z" fill="white" stroke="white" stroke-width="1.5"/>
</g>
<defs>
<clipPath id="clip0_330_4672">
<rect width="32" height="32" fill="white"/>
</clipPath>
</defs>
</svg>
