<svg width="32" height="32" viewBox="0 0 32 32" fill="none" xmlns="http://www.w3.org/2000/svg">
<path fill-rule="evenodd" clip-rule="evenodd" d="M3.29196 9.29183C3.38485 9.19871 3.4952 9.12482 3.61669 9.07441C3.73818 9.024 3.86842 8.99805 3.99996 8.99805C4.13149 8.99805 4.26173 9.024 4.38322 9.07441C4.50471 9.12482 4.61507 9.19871 4.70796 9.29183L16 20.5858L27.292 9.29183C27.3849 9.19886 27.4953 9.12511 27.6168 9.07479C27.7383 9.02447 27.8685 8.99857 28 8.99857C28.1314 8.99857 28.2616 9.02447 28.3831 9.07479C28.5046 9.12511 28.615 9.19886 28.708 9.29183C28.8009 9.38481 28.8747 9.49519 28.925 9.61667C28.9753 9.73815 29.0012 9.86835 29.0012 9.99983C29.0012 10.1313 28.9753 10.2615 28.925 10.383C28.8747 10.5045 28.8009 10.6149 28.708 10.7078L16.708 22.7078C16.6151 22.801 16.5047 22.8748 16.3832 22.9253C16.2617 22.9757 16.1315 23.0016 16 23.0016C15.8684 23.0016 15.7382 22.9757 15.6167 22.9253C15.4952 22.8748 15.3848 22.801 15.292 22.7078L3.29196 10.7078C3.19883 10.6149 3.12494 10.5046 3.07453 10.3831C3.02412 10.2616 2.99817 10.1314 2.99817 9.99983C2.99817 9.8683 3.02412 9.73806 3.07453 9.61657C3.12494 9.49508 3.19883 9.38473 3.29196 9.29183Z" fill="#563D3D"/>
</svg>
