<svg width="47" height="36" viewBox="0 0 47 36" fill="none" xmlns="http://www.w3.org/2000/svg">
<path d="M22.8415 11.1111L29.5273 16.963V16.6667C29.5273 15.1932 28.8607 13.7802 27.6741 12.7383C26.4875 11.6964 24.8781 11.1111 23.2 11.1111H22.8415ZM13.7724 12.5926L17.0415 15.463C16.936 15.8519 16.8727 16.2407 16.8727 16.6667C16.8727 18.1401 17.5393 19.5532 18.7259 20.595C19.9125 21.6369 21.5219 22.2222 23.2 22.2222C23.664 22.2222 24.128 22.1667 24.5709 22.0741L27.84 24.9444C26.4269 25.5556 24.8662 25.9259 23.2 25.9259C20.4032 25.9259 17.7209 24.9504 15.7432 23.214C13.7656 21.4775 12.6545 19.1224 12.6545 16.6667C12.6545 15.2037 13.0764 13.8333 13.7724 12.5926ZM2.10909 2.35185L6.91782 6.57407L7.86691 7.40741C4.38691 9.81481 1.64509 12.963 0 16.6667C3.64873 24.7963 12.6545 30.5556 23.2 30.5556C26.4691 30.5556 29.5905 30 32.4378 29L33.3447 29.7778L39.5033 35.1852L42.1818 32.8333L4.78764 0M23.2 7.40741C25.9968 7.40741 28.6791 8.38293 30.6568 10.1194C32.6344 11.8558 33.7455 14.211 33.7455 16.6667C33.7455 17.8519 33.4713 19 32.9862 20.037L39.1658 25.463C42.3295 23.1481 44.8604 20.1111 46.4 16.6667C42.7513 8.53704 33.7455 2.77778 23.2 2.77778C20.2473 2.77778 17.4211 3.24074 14.7636 4.07407L19.3404 8.05556C20.5425 7.64815 21.8291 7.40741 23.2 7.40741Z" fill="#707070"/>
</svg>
