<svg width="36" height="35" viewBox="0 0 36 35" fill="none" xmlns="http://www.w3.org/2000/svg">
<path d="M18 25.375C16.398 25.375 14.8319 24.9131 13.4999 24.0478C12.1678 23.1825 11.1296 21.9526 10.5166 20.5136C9.90351 19.0747 9.7431 17.4913 10.0556 15.9637C10.3682 14.4361 11.1396 13.0329 12.2724 11.9315C13.4052 10.8302 14.8485 10.0802 16.4198 9.77632C17.991 9.47246 19.6197 9.62841 21.0997 10.2244C22.5798 10.8205 23.8449 11.8298 24.7349 13.1249C25.6249 14.4199 26.1 15.9425 26.1 17.5C26.1 19.5886 25.2466 21.5916 23.7276 23.0685C22.2085 24.5453 20.1483 25.375 18 25.375ZM18 5.25C5.4 5.25 0 17.5 0 17.5C0 17.5 5.4 29.75 18 29.75C30.6 29.75 36 17.5 36 17.5C36 17.5 30.6 5.25 18 5.25Z" fill="#707070"/>
<path d="M18 21.875C20.4853 21.875 22.5 19.9162 22.5 17.5C22.5 15.0838 20.4853 13.125 18 13.125C15.5147 13.125 13.5 15.0838 13.5 17.5C13.5 19.9162 15.5147 21.875 18 21.875Z" fill="#707070"/>
</svg>
