<svg width="201" height="200" viewBox="0 0 201 200" fill="none" xmlns="http://www.w3.org/2000/svg">
<circle cx="100" cy="100" r="100" fill="white"/>
<path d="M100.5 0C155.728 0 200.5 44.7715 200.5 100C200.5 155.228 155.728 200 100.5 200C45.2715 200 0.5 155.228 0.5 100C0.5 44.7715 45.2715 0 100.5 0ZM100.5 8C49.6898 8 8.5 49.1898 8.5 100C8.5 125.982 19.272 149.447 36.5918 166.177C37.722 154.102 49.9316 125.333 100.5 125.333C151.068 125.333 163.277 154.102 164.407 166.177C181.727 149.447 192.5 125.982 192.5 100C192.5 49.1898 151.31 8 100.5 8ZM100.5 50.667C108.987 50.667 117.127 54.0379 123.128 60.0391C129.129 66.0402 132.5 74.1801 132.5 82.667C132.5 91.1537 129.129 99.2929 123.128 105.294C117.127 111.295 108.987 114.667 100.5 114.667C92.0131 114.667 83.8742 111.295 77.873 105.294C71.8719 99.2928 68.5 91.1539 68.5 82.667C68.5 74.1801 71.8719 66.0402 77.873 60.0391C83.8742 54.0381 92.0133 50.667 100.5 50.667Z" fill="#F5AFAF"/>
</svg>
