<svg width="26" height="14" viewBox="0 0 26 14" fill="none" xmlns="http://www.w3.org/2000/svg">
<path fill-rule="evenodd" clip-rule="evenodd" d="M25.7093 13.7096C25.6164 13.8028 25.506 13.8766 25.3845 13.9271C25.263 13.9775 25.1328 14.0034 25.0013 14.0034C24.8697 14.0034 24.7395 13.9775 24.618 13.9271C24.4965 13.8766 24.3862 13.8028 24.2933 13.7096L13.0013 2.41563L1.70926 13.7096C1.61629 13.8026 1.50591 13.8764 1.38443 13.9267C1.26295 13.977 1.13275 14.0029 1.00126 14.0029C0.869777 14.0029 0.739576 13.977 0.618097 13.9267C0.496618 13.8764 0.38624 13.8026 0.293264 13.7096C0.200289 13.6167 0.126536 13.5063 0.0762177 13.3848C0.0258995 13.2633 1.90735e-06 13.1331 1.90735e-06 13.0016C1.90735e-06 12.8701 0.0258995 12.7399 0.0762177 12.6185C0.126536 12.497 0.200289 12.3866 0.293264 12.2936L12.2933 0.293631C12.3862 0.200504 12.4965 0.126619 12.618 0.0762062C12.7395 0.0257933 12.8697 -0.000156403 13.0013 -0.000156403C13.1328 -0.000156403 13.263 0.0257933 13.3845 0.0762062C13.506 0.126619 13.6164 0.200504 13.7093 0.293631L25.7093 12.2936C25.8024 12.3865 25.8763 12.4969 25.9267 12.6184C25.9771 12.7399 26.0031 12.8701 26.0031 13.0016C26.0031 13.1332 25.9771 13.2634 25.9267 13.3849C25.8763 13.5064 25.8024 13.6167 25.7093 13.7096Z" fill="#563D3D"/>
</svg>
